# xmcd
#
# Track frame offsets:
#	150
#	22929
#	52620
#	78485
#	111129
#	152692
#	174944
#	210583
#	235653
#	260656
#	280393
#	301555
#
# Disc length: 4241 seconds
#
# Revision: 0
# Processed by: cddbd v1.5.2PL0 Copyright (c) Steve Scherf et al.
# Submitted via: EZCDAudioConverter 2.0.7.1
#
DISCID=88108f0c
DTITLE=Various Artist - Baoule Audio
DYEAR=1900
DGENRE=
TTITLE0=Nguess Bon Sens - Toutya
TTITLE1=Nguess Bon Sens - Ton pied mon pied
TTITLE2=Nguess Bon Sens - Bedie a Sekou
TTITLE3=Nguess Bon Sens - Trop c'est trop
TTITLE4=Lokou - Confiance
TTITLE5=Sidonie - Adjoss
TTITLE6=Sidonie - Jalousie
TTITLE7=Sidonie - Sida
TTITLE8=Bella - Nika
TTITLE9=Antoinette - Konan
TTITLE10=Antoinette - Titre inconnu
TTITLE11=Amani Djoni - Abissa
EXTD=
EXTT0=
EXTT1=
EXTT2=
EXTT3=
EXTT4=
EXTT5=
EXTT6=
EXTT7=
EXTT8=
EXTT9=
EXTT10=
EXTT11=
PLAYORDER=
